<?xml version="1.0" encoding="UTF-8" standalone="no"?>
<!-- Created with Make The Cut! -->

<svg
   xmlns:mtc="http://www.make-the-cut.com/namespaces/make-the-cut"
   xmlns:dc="http://purl.org/dc/elements/1.1/"
   xmlns:cc="http://creativecommons.org/ns#"
   xmlns:rdf="http://www.w3.org/1999/02/22-rdf-syntax-ns#"
   xmlns:svg="http://www.w3.org/2000/svg"
   xmlns="http://www.w3.org/2000/svg"
   xmlns:sodipodi="http://sodipodi.sourceforge.net/DTD/sodipodi-0.dtd"
   xmlns:inkscape="http://www.inkscape.org/namespaces/inkscape"
   mtc:dpi="90"
   version="1.1"
   width="407.4183"
   height="429.93857"
   viewBox="0 0 407.41903 429.93929"
   id="svg2"
   inkscape:version="0.48.5 r10040"
   sodipodi:docname="66bfb_i_love_star_wars.svg">
  <metadata
     id="metadata10">
    <rdf:RDF>
      <cc:Work
         rdf:about="">
        <dc:format>image/svg+xml</dc:format>
        <dc:type
           rdf:resource="http://purl.org/dc/dcmitype/StillImage" />
      </cc:Work>
    </rdf:RDF>
  </metadata>
  <defs
     id="defs8" />
  <sodipodi:namedview
     pagecolor="#ffffff"
     bordercolor="#666666"
     borderopacity="1"
     objecttolerance="10"
     gridtolerance="10"
     guidetolerance="10"
     inkscape:pageopacity="0"
     inkscape:pageshadow="2"
     inkscape:window-width="640"
     inkscape:window-height="480"
     id="namedview6"
     showgrid="false"
     inkscape:zoom="0.54894154"
     inkscape:cx="203.71916"
     inkscape:cy="214.95912"
     inkscape:window-x="0"
     inkscape:window-y="0"
     inkscape:window-maximized="0"
     inkscape:current-layer="Clipboard Trace: Trace Path 2" />
  <g
     inkscape:groupmode="layer"
     label="Clipboard Trace: Trace Path 2"
     id="Clipboard Trace: Trace Path 2"
     transform="translate(0.01002716,0.02032674)">
    <path
       label="Trace Path 2 (1): 1 (J)"
       id="Trace Path 2 (1): 1 (J)"
       d="m 252.723,54.3509 c -0.435,-0.5536 -0.516,-0.5719 -1.286,-0.2934 -2.203,0.7967 -2.66,-2.6875 -0.556,-4.2429 2.979,-2.2022 6.924,1.0585 4.512,3.7287 -1.184,1.3101 -2.065,1.5767 -2.67,0.8076 z m -7.077,33.5814 c 0.505,0.2946 1.161,0.3208 1.326,0.0531 0.135,-0.2182 -0.848,-0.7374 -1.396,-0.7374 -0.468,0 -0.428,0.3945 0.07,0.6843 z M 224.095,58.8324 c -0.269,0.1736 -0.18,0.228 0.375,0.2307 1.321,0.0066 3.138,-0.7952 2.729,-1.2043 -0.108,-0.1081 -0.609,0.014 -1.114,0.2713 -0.505,0.2574 -1.08,0.4695 -1.278,0.4715 -0.198,0.0019 -0.519,0.1058 -0.712,0.2308 z m 27.38,-0.4755 c 4.113,0.6818 7.313,-1.8453 7.693,-6.0747 0.637,-7.1049 -9.013,-9.0259 -12.425,-2.4733 -1.6,3.0724 1.098,7.9456 4.732,8.548 z m 139.849,14.5845 c -0.08,-0.3222 -0.264,-1.5879 -0.409,-2.8125 -0.26,-2.1909 -1.28,-8.1316 -1.545,-8.9973 -0.127,-0.4135 -0.019,-0.4352 1.639,-0.3287 2.247,0.1442 2.496,0.3468 2.495,2.0305 -0.001,2.4884 -1.895,11.2653 -2.18,10.108 z m -215.818,11.419 c -1.267,-0.8056 -2.435,-8.0546 -2.386,-14.8124 0.032,-4.4081 -1.163,-3.2713 9.162,-8.715 2.952,-1.5565 3.469,-1.1188 3.469,2.9376 0,2.5213 0.749,7.7012 1.749,12.0952 0.504,2.2189 0.688,3.5297 0.619,4.4118 -0.017,0.2093 -0.303,0.1397 -0.946,-0.2303 l -0.921,-0.5303 -1.129,0.5463 c -0.622,0.3005 -2.237,1.209 -3.591,2.019 -4.079,2.4411 -5.139,2.8418 -6.026,2.2781 z M 280.559,60.3485 c -0.196,-0.2362 -0.201,-0.3758 -0.019,-0.4889 0.311,-0.1921 0.986,0.3203 0.806,0.6118 -0.186,0.3006 -0.473,0.2558 -0.787,-0.1229 z M 207.104,39.2695 C 206.367,37.0341 206,29.621 206.257,22.1587 l 0.176,-5.099 2.259,-1.2618 c 1.243,-0.694 4.949,-2.7093 8.236,-4.4784 3.287,-1.7691 6.627,-3.57785 7.422,-4.01943 l 1.445,-0.80289 2.256,3.75162 c 2.464,4.0983 3.52,6.2082 3.293,6.5762 -0.252,0.4071 -0.819,0.2623 -1.452,-0.3705 -0.74,-0.7409 -0.86,-0.6914 -3.647,1.5133 -6.769,5.3544 -14.872,16.3404 -13.795,18.7042 0.174,0.3827 0.144,0.8513 -0.113,1.7154 -0.364,1.2242 -0.8,1.3862 -0.8,0.2971 l 0,-0.616 -0.644,0.6174 c -1.519,1.4547 -3.406,1.7454 -3.789,0.5836 z m 25.569,132.4255 c -7.642,-6.463 -27.929,-26.422 -27.37,-26.927 0.101,-0.091 2.872,-1.638 6.159,-3.438 14.062,-7.7 17.29,-9.331 18.015,-9.101 0.506,0.16 1.949,1.93 5.074,6.221 4.29,5.891 7.898,10.416 14.346,17.992 3.958,4.651 4.904,5.95 4.642,6.372 -0.071,0.116 -2.158,1.257 -4.638,2.535 -2.48,1.279 -6.631,3.502 -9.225,4.94 -5.44,3.015 -5.165,2.96 -7.003,1.406 z m 56.061,-30.215 c -1.471,-1.535 -4.994,-6.488 -10.796,-15.175 -5.953,-8.915 -6.754,-10.033 -9.337,-13.033 -1.814,-2.105 -1.889,-2.335 -0.975,-2.966 1.06,-0.732 17.956,-10.046 24.721,-13.6267 l 2.748,-1.4551 0.791,1.2433 c 2.631,4.1345 13.383,25.1375 15.111,29.5175 1.626,4.121 1.492,4.446 -2.756,6.692 -1.359,0.718 -4.499,2.404 -6.979,3.746 -5.119,2.771 -11.258,5.936 -11.514,5.936 -0.095,0 -0.551,-0.395 -1.014,-0.879 z m -15.523,59.029 c -0.483,-0.335 -0.878,-0.686 -0.878,-0.78 0,-0.515 7.97,-4.769 9.458,-5.048 0.732,-0.137 0.977,-0.074 1.453,0.373 1.17,1.099 0.678,1.562 -4.232,3.99 -4.493,2.221 -4.652,2.261 -5.801,1.465 z m 12.78,-7.64 c -0.411,-0.495 3.473,-3.232 6.052,-4.264 1.15,-0.46 2.419,0.097 3.094,1.359 0.638,1.192 -8.23,4.009 -9.146,2.905 z m 1.272,7.062 c 0,-0.507 12.545,-8.033 18.416,-11.048 l 1.891,-0.972 2.386,0.782 c 1.312,0.429 2.386,0.866 2.386,0.97 0,0.104 -0.923,1.149 -2.051,2.321 l -2.051,2.133 -5.976,1.999 c -7.812,2.613 -15.001,4.441 -15.001,3.815 z m -24.968,-6.635 c -2.303,-1.535 -4.213,-2.87 -4.245,-2.967 -0.246,-0.75 8.496,-4.858 10.324,-4.852 1.409,0.005 8.877,3.439 9.873,4.54 0.724,0.8 0.014,1.414 -1.642,1.421 -0.436,0.002 -2.583,0.923 -5.422,2.326 l -4.701,2.322 -4.187,-2.79 z m 50.215,-7.461 c 0,-0.759 5.719,-4.154 6.684,-3.969 0.353,0.068 0.086,0.478 -1.392,2.135 l -1.829,2.05 -1.731,0 c -0.953,0 -1.732,-0.097 -1.732,-0.216 z m -31.821,-0.651 c -2.727,-1.326 -4.047,-1.734 -6.22,-1.923 -2.246,-0.196 -2.639,-0.414 -1.884,-1.048 0.923,-0.773 6.424,-3.717 8.621,-4.613 l 2.067,-0.842 1.646,0.848 c 2.95,1.52 8.381,5.335 8.058,5.659 -0.083,0.084 -0.849,0.251 -1.701,0.371 -0.853,0.121 -2.472,0.601 -3.599,1.068 -4.446,1.839 -4.223,1.824 -6.988,0.48 z m 13.135,-6.455 c -3.313,-1.689 -6.992,-3.941 -6.992,-4.279 0,-0.297 0.949,-1.143 1.758,-1.567 1.29,-0.676 2.495,-0.523 3.657,0.464 0.567,0.481 2.296,1.868 3.843,3.081 3.598,2.822 3.777,3.014 3.276,3.516 -0.799,0.799 -2.193,0.493 -5.542,-1.215 z m 3.854,7.892 -0.775,-0.281 0.54,-0.497 c 1.059,-0.972 5.269,-3.394 17.724,-10.196 9.666,-5.278 8.78,-4.878 8.592,-3.879 -0.109,0.584 -0.021,0.924 0.371,1.422 0.653,0.829 1.213,0.432 -6.576,4.661 -17.864,9.7 -17.614,9.589 -19.876,8.77 z m -49.566,-3.092 c -2.191,-1.579 -5.118,-3.726 -6.504,-4.769 l -2.52,-1.899 2.754,-1.524 c 1.515,-0.839 5.497,-3.026 8.848,-4.862 3.352,-1.835 8.836,-4.868 12.188,-6.74 10.14,-5.665 10.665,-5.875 12.152,-4.866 1.251,0.849 12.106,10.433 12.106,10.689 0,0.12 -0.631,0.218 -1.401,0.218 -2.46,0 -5.956,1.652 -19.693,9.307 -7.864,4.382 -13.407,7.338 -13.734,7.325 -0.116,-0.004 -2.004,-1.3 -4.196,-2.879 z m 53.891,-11.888 c -1.899,-0.976 -3.93,-1.894 -4.512,-2.04 -0.582,-0.147 -1.056,-0.334 -1.052,-0.415 0.007,-0.138 6.415,-3.78 25.871,-14.704 l 7.975,-4.478 0.43,0.547 c 0.535,0.68 1.532,0.954 4.455,1.222 2.675,0.245 2.664,0.238 2.333,1.385 -0.14,0.484 -0.473,1.631 -0.742,2.55 l -0.487,1.67 -2.753,1.639 c -3.755,2.237 -3.95,2.322 -5.66,2.47 -1.753,0.152 -2.563,0.651 -2.956,1.822 -0.306,0.912 0.142,0.632 -8.865,5.551 -9.677,5.285 -9.306,5.211 -14.037,2.781 z m 43.531,-27.523 c 0,-2.195 -0.147,-2.048 5.119,-5.132 9.789,-5.732 10.423,-5.85 8.763,-1.627 -0.518,1.317 -1.076,2.941 -1.241,3.61 -0.29,1.174 -0.335,1.223 -1.256,1.377 -0.526,0.088 -2.379,0.577 -4.119,1.087 -2.596,0.76 -6.296,1.591 -7.09,1.593 -0.097,0 -0.176,-0.409 -0.176,-0.908 z m 16.624,-4.592 c 0.07,-0.37 0.312,-1.728 0.538,-3.017 l 0.411,-2.344 1.228,-0.071 1.228,-0.071 -1.392,2.778 c -1.467,2.925 -2.249,3.985 -2.013,2.725 z M 257.606,159.08 c -0.915,-0.382 -6.74,-6.834 -12.499,-13.848 -9.088,-11.065 -10.809,-13.004 -12.811,-14.43 l -0.681,-0.484 2.214,-1.37 c 1.218,-0.753 3.667,-2.107 5.442,-3.008 l 3.228,-1.639 0.602,0.564 c 0.331,0.309 1.504,1.934 2.606,3.61 4.261,6.48 9.232,12.759 21.203,26.785 0.848,0.994 0.834,1.26 -0.051,0.951 -0.945,-0.329 -1.449,-0.176 -4.774,1.451 -3.068,1.5 -3.758,1.719 -4.479,1.418 z m 76.426,-19.734 c -0.197,-0.665 -0.935,-3.494 -1.64,-6.287 -0.704,-2.793 -1.391,-5.368 -1.525,-5.721 -0.134,-0.353 -0.244,-0.68 -0.244,-0.726 0,-0.451 11.945,-6.785 12.239,-6.49 0.588,0.587 1.64,8.59 1.336,10.161 -0.107,0.558 -0.2,1.939 -0.206,3.07 l -0.01,2.057 0.688,0.137 c 1.362,0.273 1.167,1.492 -0.239,1.492 -1.075,0 -2.946,0.686 -6.308,2.316 -3.237,1.569 -3.623,1.568 -4.091,-0.009 z m -65.142,11.089 c -3.72,-3.766 -8.957,-9.938 -13.03,-15.358 -3.097,-4.121 -6.782,-8.405 -8.945,-10.397 -2.144,-1.976 -2.288,-1.706 2.305,-4.339 5.921,-3.395 10.778,-5.788 11.139,-5.488 0.575,0.478 13.106,19.326 19.067,28.681 2.474,3.883 2.616,4.361 1.293,4.361 -0.304,0 -1.794,0.648 -3.311,1.44 -7.005,3.656 -6.107,3.54 -8.518,1.1 z m 104.836,-31.186 c -0.346,-0.346 0.069,-13.511 0.507,-16.076 0.144,-0.842 0.311,-1.018 1.854,-1.957 1.848,-1.125 5.991,-3.3728 6.216,-3.3728 0.077,0 -0.064,0.7115 -0.312,1.581 -0.249,0.8698 -0.668,2.7948 -0.932,4.2778 -1.012,5.687 -2.268,9.02 -4.969,13.184 -1.512,2.332 -1.954,2.774 -2.364,2.363 z m -198.23,-18.081 c -2.093,-4.0655 -3.505,-7.5925 -3.135,-7.8277 1.196,-0.7604 1.738,0.0374 2.979,4.3842 0.405,1.418 0.994,3.4105 1.311,4.4275 0.814,2.617 0.608,2.442 -1.155,-0.984 z m -9.354,284.098 c 1.484,-3.997 4.302,-11.799 6.262,-17.339 1.961,-5.54 3.776,-10.069 4.033,-10.065 0.399,0.008 10.197,29.489 11.085,33.351 0.248,1.081 -1.893,1.318 -11.887,1.318 l -12.19,0 2.697,-7.265 z m 98.42,-18.516 0,-7.969 13.011,0 c 14.14,0 14.472,0.115 16.026,5.534 0.929,3.238 -0.186,8.427 -2.066,9.62 -0.654,0.415 -6.99,0.761 -14.08,0.769 l -12.891,0.015 0,-7.969 z M 224.25,274.518 c 0,-0.454 1.092,-3.724 2.427,-7.266 1.335,-3.542 3.876,-10.647 5.646,-15.789 1.771,-5.142 3.529,-9.659 3.906,-10.036 0.378,-0.378 3.285,7.099 6.46,16.615 l 5.773,17.302 -12.106,0 c -6.658,0 -12.106,-0.372 -12.106,-0.826 z m 101.25,-24.956 0,-7.968 12.656,0 c 11.406,0 12.842,0.185 14.531,1.875 2.658,2.657 2.701,11.68 0.062,13.092 -0.997,0.534 -7.536,0.97 -14.531,0.97 l -12.718,0 0,-7.969 z M 191.851,128.2 c -1.343,-1.056 -6.792,-13.107 -10.822,-23.933 -1.752,-4.7095 -4.806,-13.3642 -4.734,-13.4191 0.207,-0.1578 9.977,-5.2215 10.309,-5.3428 0.471,-0.1723 0.331,-0.5879 1.714,5.1038 2.297,9.4521 6.374,19.9791 11.403,29.4411 2.79,5.25 3.273,6.677 1.89,5.59 -0.9,-0.708 -1.64,-0.563 -3.804,0.744 -3.913,2.365 -4.882,2.661 -5.956,1.816 z m 55.653,-39.3138 c -1.41,-0.128 -6.9,-1.0533 -7.187,-1.2113 -0.379,-0.2087 0.637,-2.568 1.358,-3.1514 0.422,-0.3419 0.765,-0.4115 1.49,-0.3018 0.517,0.0785 2.104,0.2943 3.525,0.4797 3.546,0.4622 3.392,0.3663 3.392,2.1164 0,1.8775 -0.476,2.2593 -2.578,2.0684 z m -11.931,-3.5193 c -0.332,-0.2612 -0.672,-0.6904 -0.756,-0.9537 -0.138,-0.4346 -0.178,-0.4432 -0.433,-0.0935 -0.344,0.4698 -1.708,0.0212 -4.239,-1.3944 l -1.541,-0.862 0.403,-0.6827 c 0.222,-0.3755 0.782,-1.1222 1.244,-1.6593 l 0.842,-0.9766 1.045,0.4659 c 0.575,0.2563 1.995,1.013 3.155,1.6817 1.16,0.6687 2.373,1.2794 2.696,1.3571 1.402,0.3383 1.318,1.0089 -0.34,2.7134 -0.981,1.009 -1.242,1.0598 -2.076,0.4041 z m -30.724,35.8911 c -2.173,-2.925 -6.529,-11.907 -9.071,-18.707 -2.586,-6.9177 -6.324,-18.6243 -6.024,-18.8678 0.777,-0.6317 5.232,-2.6022 5.362,-2.3712 0.091,0.1633 0.494,1.6111 0.895,3.2172 2.535,10.1456 8.651,25.3038 13.47,33.3848 1.614,2.706 2.023,4.049 1.008,3.311 -1.345,-0.98 -1.484,-0.982 -3.239,-0.065 -1.976,1.032 -1.715,1.021 -2.401,0.098 z m 43.342,-39.7212 c -0.007,-1.3766 2.433,-12.0571 3.077,-13.4717 0.847,-1.8578 2,-0.8748 2.634,2.2454 1.433,7.0486 1.323,13.9304 -0.177,11.0313 -0.784,-1.5163 -3.295,-1.6429 -4.605,-0.2321 -0.864,0.9296 -0.926,0.9581 -0.929,0.4271 z m 35.768,-1.3116 c -0.173,-0.277 -0.451,-0.4323 -0.643,-0.3589 -0.61,0.2344 -0.369,-0.1789 3.004,-5.1385 3.955,-5.8152 3.746,-5.7085 5.479,-2.8052 1.926,3.2262 1.971,4.5225 0.15,4.3847 -0.783,-0.0593 -1.09,0.0658 -1.961,0.7989 -1.307,1.1005 -5.098,3.6074 -5.455,3.6074 -0.148,0 -0.406,-0.2198 -0.574,-0.4884 z m -18.303,4.8126 c -0.326,-0.3545 -0.822,-0.98 -1.103,-1.39 l -0.511,-0.7456 2.876,-1.6256 c 1.581,-0.894 3.422,-1.9014 4.09,-2.2385 l 1.214,-0.613 1.361,1.5508 1.362,1.5507 -0.555,0.3787 c -1.791,1.2236 -4.975,2.8732 -6.353,3.2919 -1.945,0.5907 -1.675,0.6088 -2.381,-0.1594 z m -21.837,-5.285 c -0.591,-1.4143 -2.623,-1.8638 -4.426,-0.979 -1.647,0.8088 -1.36,0.1235 2.568,-6.1236 3.668,-5.8331 4.664,-6.8685 5.656,-5.8772 0.541,0.5409 -0.588,6.0791 -2.421,11.8839 -0.664,2.1015 -0.884,2.2761 -1.377,1.0959 z m 33.112,-1.4 c -0.074,-0.195 0.001,-0.5195 0.169,-0.721 0.441,-0.5324 -0.055,-0.7641 -1.329,-0.6205 -1.353,0.1525 -1.334,0.0921 0.821,-2.5937 3.894,-4.8534 3.663,-4.739 6.057,-2.9954 1.335,0.973 1.294,1.1245 -0.938,3.4584 -3.042,3.1804 -4.488,4.2312 -4.78,3.4722 z m -40.845,-3.7894 c -0.084,-0.1364 0.118,-0.9241 0.448,-1.7506 0.711,-1.7771 0.735,-1.965 0.191,-1.485 -0.225,0.1989 -0.779,0.4386 -1.23,0.5326 -1.125,0.2343 -1.203,0.3065 -0.883,0.819 0.43,0.6883 0.058,0.8199 -1.442,0.5102 -0.968,-0.1999 -1.561,-0.2128 -2.005,-0.0439 -2.246,0.8539 -0.89,-0.8747 3.317,-4.2285 6.41,-5.1109 7.397,-5.7027 8.407,-5.0411 0.883,0.5788 0.547,1.2446 -2.85,5.6459 -0.798,1.035 -1.98,2.6486 -2.626,3.5856 -0.645,0.9371 -1.242,1.5922 -1.327,1.4558 z m -22.517,41.8476 c -2.382,-3.673 -8.011,-15.375 -10.852,-22.5583 -1.765,-4.4656 -5.36,-14.6541 -5.21,-14.7671 0.358,-0.2699 12.965,-7.1048 14.06,-7.623 l 1.463,-0.6919 0.522,0.5254 c 0.287,0.2889 2.78,5.1792 5.541,10.8673 2.761,5.688 6.772,13.7784 8.915,17.9786 4.446,8.715 4.371,8.476 2.666,8.476 -1.15,0 -1.591,0.206 -6.739,3.149 -9.177,5.247 -9.795,5.524 -10.366,4.644 z m 11.68,-38.1549 c -0.775,-0.6159 -5.535,-5.6722 -5.419,-5.757 0.023,-0.0168 0.899,-0.5647 1.948,-1.2174 l 1.906,-1.187 2.312,2.8394 c 3.25,3.9894 3.142,3.6615 1.626,4.957 -1.499,1.28 -1.267,1.2444 -2.373,0.365 z m -54.475,11.1002 c -0.807,-0.9729 -3.048,-10.9951 -3.509,-15.6982 -0.402,-4.0963 -0.389,-4.2014 0.577,-4.662 2.128,-1.0148 2.402,-0.5812 2.418,3.8237 0.014,3.664 0.455,8.2834 1.22,12.7839 0.572,3.3642 0.276,4.9362 -0.706,3.7526 z M 284.686,67.767 c 0.138,-0.8645 0.111,-0.947 -0.263,-0.7902 -1.119,0.4698 -1.472,0.4241 -1.472,-0.1906 0,-0.7202 1.241,-4.3014 2.032,-5.8652 l 0.573,-1.1316 0.971,0.1641 c 1.53,0.2585 2.629,0.7073 2.707,1.1059 0.155,0.7938 -3.837,7.673 -4.453,7.673 -0.161,0 -0.195,-0.3425 -0.095,-0.9654 z m -26.047,11.9469 c -0.44,-1.1018 -2.266,-11.0767 -2.266,-12.3836 0,-0.3482 1.831,-1.0529 2.327,-0.8955 0.712,0.2262 6.579,11.2123 6.579,12.3207 0,0.5477 -0.619,0.5957 -1.275,0.0991 -1.154,-0.8725 -4.584,-0.0905 -4.584,1.0449 0,0.831 -0.413,0.7329 -0.781,-0.1856 z m 15.302,-13.1401 c -0.743,-0.3906 -1.524,-0.7097 -1.736,-0.709 -0.441,0.0014 -4.341,-2.5844 -5.836,-3.8693 -1.174,-1.0091 -1.213,-1.2719 -0.335,-2.2548 l 0.661,-0.7397 1.272,0.4155 c 5.025,1.6408 12.217,4.7487 12.123,5.2389 -0.124,0.643 -1.55,1.4393 -2.307,1.288 -1.014,-0.203 -1.819,0.0775 -1.906,0.6639 -0.111,0.756 -0.446,0.7502 -1.936,-0.0335 z m 56.041,52.9012 c -0.423,-0.467 -1.236,-2.387 -4.099,-9.67 -3.914,-9.9602 -7.089,-16.62 -10.249,-21.4999 -2.083,-3.216 -2.072,-3.123 -0.488,-4.1358 2.691,-1.7219 27.386,-15.4893 31.491,-17.5562 l 1.694,-0.853 0.35,0.5345 c 1.057,1.614 4.779,13.1583 6.67,20.6917 2.135,8.504 3.843,18.8097 3.127,18.8657 -0.096,0.008 -0.569,0.044 -1.05,0.081 -1.493,0.115 -8.502,3.717 -17.29,8.885 -8.095,4.761 -9.485,5.399 -10.156,4.657 z M 265.485,71.3177 c -1.32,-2.1245 -2.808,-4.3783 -3.306,-5.0084 -1.042,-1.3175 -1.002,-1.6533 0.262,-2.2234 0.898,-0.4051 0.927,-0.4029 1.844,0.1464 1.435,0.8585 9.605,7.9375 9.774,8.4675 0.189,0.5981 -0.302,0.9377 -1.074,0.7412 -1.275,-0.3248 -2.012,-0.162 -3.546,0.7825 l -1.554,0.9569 -2.4,-3.8627 z M 253.47,61.4491 c -0.259,-0.3121 -0.709,-0.3701 -2.45,-0.3159 -7.028,0.2186 -10.975,-9.3649 -6.033,-14.6478 3.838,-4.1031 8.568,-5.0254 13.224,-2.5786 6.101,3.2058 6.087,10.8997 -0.026,15.0898 -0.816,0.5592 -1.765,1.3658 -2.11,1.7926 -0.753,0.934 -2.096,1.2739 -2.605,0.6599 z m -35.281,6.5627 c -0.579,-0.6397 -1.993,-3.7576 -2.608,-5.7504 l -0.556,-1.8031 0.899,-0.242 c 2.115,-0.5696 3.565,-0.7432 3.747,-0.4487 0.399,0.647 2.14,7.2273 1.98,7.4864 -0.553,0.8944 -2.878,1.4033 -3.462,0.7578 z m 9.878,0.5341 c 0.195,-1.0385 -1.243,-2.7667 -2.301,-2.7667 -0.621,0 -1.653,-1.0355 -1.497,-1.5023 0.177,-0.5319 13.792,-5.3896 14.487,-5.1689 2.162,0.6863 0.141,2.9217 -5.945,6.5738 -1.7,1.0204 -3.499,2.2726 -3.997,2.7827 l -0.906,0.9276 0.159,-0.8462 z m 53.177,-10.0557 c -0.1,-0.2612 -0.515,-0.3516 -1.616,-0.3516 -0.815,0 -2.09,-0.1584 -2.833,-0.352 -0.876,-0.2281 -1.793,-0.3002 -2.605,-0.2048 -2.074,0.2437 -6.455,-1.2868 -6.455,-2.2551 0,-1.1107 0.848,-1.2777 6.965,-1.3721 3.137,-0.0484 6.399,-0.0136 7.248,0.0774 l 1.545,0.1654 -0.126,0.7401 c -0.161,0.9496 -1.509,3.9042 -1.781,3.9042 -0.114,0 -0.267,-0.1582 -0.342,-0.3515 z m 7.603,-2.3484 -0.531,-0.8192 -0.842,0.3518 c -0.463,0.1934 -0.952,0.2838 -1.086,0.2007 -0.308,-0.1907 -0.053,-6.4636 0.29,-7.1033 0.266,-0.4967 3.524,-1.3501 4.009,-1.0501 0.445,0.2751 -0.199,7.7497 -0.762,8.8349 -0.301,0.5815 -0.476,0.5142 -1.078,-0.4148 z M 222.589,58.53 c -0.893,-2.8019 -0.891,-3.9247 0.01,-4.3804 1.419,-0.7171 12.992,-0.5408 14.413,0.2196 1.476,0.7896 0.25,1.7112 -4.084,3.0706 -2.071,0.6498 -5.006,1.596 -6.523,2.1026 -1.516,0.5067 -2.856,0.9212 -2.978,0.9212 -0.122,0 -0.499,-0.8701 -0.838,-1.9336 z M 362.4,101.819 c -0.405,-0.765 -1.184,-3.6742 -2.839,-10.6054 -2.841,-11.8972 -5.175,-19.7194 -7.258,-24.3238 -0.541,-1.1964 -0.95,-2.3566 -0.908,-2.5781 0.155,-0.8236 20.69,-12.0197 21.326,-11.6269 0.9,0.5562 4.125,9.355 5.833,15.9144 2.127,8.1667 3.431,19.9401 2.465,22.2513 -0.619,1.4824 -4.035,3.6762 -14.768,9.4855 -4.02,2.176 -3.575,2.004 -3.851,1.483 z M 191.381,75.7418 c -1.169,-2.1837 -3.568,-17.0011 -2.923,-18.047 0.273,-0.4409 4.879,-3.1708 8.152,-4.8313 3.808,-1.9316 4.357,-1.7572 4.357,1.3844 0,2.3996 0.525,6.5986 1.409,11.2548 1.038,5.4729 1.152,7.5117 0.348,6.2109 -0.343,-0.5557 -1.654,-0.0955 -6.01,2.1094 -5.042,2.5518 -5.002,2.5375 -5.333,1.9188 z m 30.728,-25.5403 c -0.206,-0.538 0.345,-4.1694 0.827,-5.4494 0.579,-1.5363 1.052,-1.4675 8.451,1.23 7.059,2.5732 6.583,2.354 6.583,3.0291 0,1.4038 -0.542,1.6424 -3.377,1.4873 -3.763,-0.2058 -5.012,-0.5416 -3.596,-0.9665 0.785,-0.2355 -0.067,-0.5616 -1.523,-0.5832 -1.212,-0.0179 -1.469,0.3288 -0.514,0.692 0.33,0.1255 0.538,0.3292 0.462,0.4528 -0.174,0.2811 -0.8,0.0696 -1.413,-0.4774 -1.407,-1.2555 -3.224,-1.2476 -4.425,0.0193 -0.968,1.022 -1.257,1.1329 -1.475,0.566 z M 384.82,89.4324 c -0.302,-0.5659 -0.565,-2.4241 -1.179,-8.3391 -1.365,-13.1562 -4.283,-24.1651 -7.605,-28.6909 l -0.82,-1.1172 1.926,-1.3112 c 2.894,-1.9699 3.505,-2.2158 4.267,-1.7166 0.474,0.3106 0.575,0.517 0.447,0.9153 -0.702,2.1886 0.041,4.9565 1.399,5.2113 0.754,0.1414 0.816,0.2331 1.299,1.8947 0.568,1.9548 0.545,2.081 -0.414,2.2728 -1.771,0.3542 -1.542,1.7943 0.286,1.8032 0.405,0.002 0.88,0.095 1.057,0.2068 0.683,0.4329 2.603,11.34 3.102,17.6267 l 0.271,3.42 -0.587,1.0316 c -0.324,0.5674 -0.707,1.5283 -0.852,2.1353 -0.893,3.7244 -2.017,5.7408 -2.597,4.6573 z M 214.883,56.1233 c -0.747,-1.9667 -0.873,-7.7627 -0.183,-8.4528 1.04,-1.0403 3.858,-0.4055 4.21,0.9486 0.165,0.6326 -0.154,6.6781 -0.387,7.3405 -0.072,0.2041 -0.363,0.1146 -0.972,-0.2987 -0.945,-0.6408 -1.415,-0.6442 -1.301,-0.0095 0.184,1.0163 -1.004,1.4264 -1.367,0.4719 z m -8.253,12.0124 c -1.426,-3.7163 -3.422,-18.2707 -2.611,-19.0417 0.159,-0.1517 1.239,-0.8166 2.399,-1.4774 4,-2.2783 4.771,-2.1582 4.411,0.6876 -0.452,3.5843 -0.202,7.8235 0.71,12.033 0.95,4.3801 1.093,6.4063 0.47,6.6453 -0.234,0.0899 -0.507,-0.0184 -0.695,-0.2764 -0.433,-0.592 -3.65,0.6595 -4.036,1.5701 -0.126,0.2962 -0.512,0.2123 -0.648,-0.1405 z m 61.998,-17.4106 c -0.645,-0.2595 -0.701,-1.1335 -0.117,-1.8519 0.389,-0.4788 11.377,-4.475 13.292,-4.8343 1.324,-0.2485 1.901,1.7963 1.31,4.6438 -0.334,1.6093 -0.568,1.8007 -1.329,1.0864 -0.638,-0.5999 -5.122,-0.9225 -7.936,-0.5709 -1.693,0.2116 -1.66,0.5903 0.054,0.62 1.504,0.0261 2.638,0.2718 2.279,0.4939 -0.832,0.5139 -6.527,0.8253 -7.553,0.413 z m -61.066,-8.7777 c -0.462,-0.1805 -0.461,-0.1855 0.025,-0.3404 0.655,-0.2081 1.436,0.0689 0.991,0.3513 -0.365,0.2311 -0.398,0.2307 -1.016,-0.0109 z m 27.465,1.7359 c -1.648,-0.7082 -2.564,-1.2336 -2.656,-1.5241 -0.487,-1.5325 -4.055,-2.8626 -5.629,-2.0981 -1.269,0.6165 -1.599,0.4851 -1.428,-0.5687 0.241,-1.4852 2.34,-5.0226 3.184,-5.3648 0.706,-0.2866 11.322,8.7017 11.468,9.71 0.191,1.3219 -1.635,1.2648 -4.939,-0.1543 z m 31.952,1.236 c -0.28,-0.2984 -0.509,-0.6447 -0.509,-0.7697 0,-0.7454 9.443,-8.5316 10.347,-8.5316 0.181,0 1.114,0.791 2.075,1.7578 0.96,0.9668 1.87,1.7578 2.022,1.7578 0.337,0 0.867,1.4269 0.617,1.6638 -0.563,0.5354 -3.785,0.7631 -4.735,0.3347 -0.526,-0.2372 -0.986,-0.3883 -1.023,-0.3359 -0.037,0.0523 -0.191,0.3821 -0.341,0.7326 -0.297,0.6915 -1.974,1.6334 -5.53,3.1054 -2.369,0.9806 -2.278,0.9717 -2.923,0.2851 z m -2.827,-4.6677 c 0.378,-1.3178 0.271,-1.4875 -0.483,-0.7656 -1.786,1.711 -0.679,-0.6083 3.414,-7.1529 l 2.512,-4.0171 2.309,2.3005 c 2.687,2.6772 2.585,2.4338 1.293,3.0614 -1.166,0.5664 -2.757,1.8573 -6.249,5.07 -2.679,2.4655 -3.144,2.7152 -2.796,1.5037 z m -65.503,97.3974 c -0.439,-0.37 -1.099,-0.74 -1.467,-0.821 -0.971,-0.213 -1.292,-0.933 -0.609,-1.367 1.346,-0.853 84.13,-46.8909 88.891,-49.4332 5.367,-2.8662 11.768,-6.3827 30.82,-16.9298 9.604,-5.3165 21.185,-11.6863 25.736,-14.1551 4.552,-2.4687 11.935,-6.506 16.407,-8.9718 9.032,-4.98 16.964,-9.095 17.532,-9.095 0.583,0 1.699,1.3534 1.982,2.4044 0.361,1.3413 0.032,1.9524 -1.236,2.2971 -2.64,0.7175 -11.222,5.0608 -19.874,10.0583 -2.514,1.4519 -10.108,5.7224 -16.875,9.4899 -6.768,3.7676 -16.471,9.2252 -21.563,12.1281 -13.707,7.8147 -14.885,8.4648 -20.523,11.3274 -2.845,1.4441 -7.65,4.1077 -10.678,5.9192 -3.028,1.8114 -7.345,4.264 -9.593,5.4503 -2.249,1.1863 -7.78,4.1622 -12.292,6.6132 -17.735,9.633 -23.098,12.426 -25.254,13.151 -2.42,0.814 -7.897,3.913 -11.542,6.531 -2.242,1.61 -3.325,2.222 -5.321,3.007 -1.748,0.689 -8.118,4.123 -15.539,8.379 -3.48,1.996 -6.75,3.868 -7.265,4.16 l -0.938,0.532 -0.799,-0.675 z M 215.84,43.9115 c -0.521,-0.8435 1.905,-7.3943 3.158,-8.5267 1.256,-1.1348 4.211,0.8248 3.448,2.2863 -3.138,6.0136 -3.733,6.8088 -4.163,5.573 -0.306,-0.8753 -0.504,-0.9044 -1,-0.1466 -0.484,0.7378 -1.23,1.1587 -1.443,0.814 z m 149.122,-8.7463 c -0.314,-0.1254 -1.04,-0.2038 -1.613,-0.1741 -1.216,0.0629 -1.223,0.0562 -4.107,-3.8854 -4.822,-6.5922 -11.86,-14.8655 -17.614,-20.7046 l -3.986,-4.04532 1.641,0.02214 c 3.948,0.05328 4.23,0.15524 6.157,2.22664 10.765,11.57354 20.378,23.55054 21.05,26.22714 0.165,0.6603 -0.401,0.7839 -1.528,0.3335 z m -78.635,8.7706 c -0.192,-0.371 -0.622,-1.3994 -0.955,-2.2851 -0.576,-1.5301 -0.973,-2.3138 -1.844,-3.6439 l -0.385,-0.5866 1.98,-1.2096 c 1.088,-0.6652 2.079,-1.2095 2.2,-1.2095 0.538,0 2.622,6.6133 2.622,8.3186 0,1.4113 -1.203,1.6261 -1.957,0.3495 -0.49,-0.8292 -0.856,-0.7214 -0.856,0.252 0,0.8765 -0.356,0.883 -0.805,0.0146 z m -45.748,54.429 c -2.406,-1.9035 -7.459,-8.4644 -6.928,-8.9953 0.052,-0.0519 1.774,0.3866 3.826,0.9744 6.839,1.9585 7.557,2.058 15.099,2.0911 l 6.68,0.0293 0.3,0.9076 c 0.412,1.2418 0.147,1.4547 -2.652,2.1315 -2.328,0.5626 -2.929,0.8008 -2.023,0.8008 0.764,0 0.611,0.3661 -0.341,0.8182 -0.671,0.3182 -0.969,0.3484 -1.418,0.1439 -0.916,-0.4174 -1.737,-0.3048 -3.353,0.4596 -0.835,0.3951 -2.523,0.9346 -3.75,1.199 -3.838,0.8266 -3.665,0.8445 -5.44,-0.5601 z m 12.419,-10.9445 c 0,-2.0736 -0.098,-1.9876 3.047,-2.667 5.509,-1.19 6.348,-0.9755 6.516,1.6651 l 0.098,1.53 -1.374,-0.3231 c -2.423,-0.57 -5.006,-0.4139 -5.006,0.3025 0,0.2849 0.225,0.3188 1.231,0.1855 2.139,-0.2835 0.945,0.3402 -1.372,0.7162 -3.343,0.5427 -3.14,0.6337 -3.14,-1.4092 z M 370.315,31.4628 c -0.998,-0.1219 -1.318,-0.2915 -1.993,-1.054 -1.102,-1.2463 -6.281,-7.9765 -6.202,-8.0597 0.08,-0.0841 1.847,0.6051 5.116,1.9962 l 2.53,1.0765 1.345,2.0129 c 1.708,2.5577 2.077,3.4108 1.681,3.8881 -0.304,0.3667 -0.523,0.379 -2.477,0.14 z M 223.843,32.521 c -0.078,-0.2039 -0.142,-0.573 -0.142,-0.8203 0,-0.5559 -0.028,-0.5557 -0.985,0.0092 -1.076,0.6351 -1.54,0.3377 -1.026,-0.6577 0.805,-1.5557 5.576,-6.8404 6.166,-6.8287 0.401,0.0079 2.642,2.5644 2.642,3.0138 0,0.3013 -5.857,5.6544 -6.187,5.6544 -0.179,0 -0.389,-0.1668 -0.468,-0.3707 z m 159.774,10.2993 c -1.074,-2.6535 -4.841,-10.3182 -6.068,-12.3487 -1.073,-1.7762 -1.05,-1.7844 1.287,-0.4642 5.596,3.1616 9.572,6.3745 9.572,7.7352 0,1.0297 -3.228,7.3767 -3.745,7.3628 -0.067,-0.0018 -0.538,-1.0301 -1.046,-2.2851 z M 167.23,61.2339 c 0.478,-7.3611 0.435,-7.224 5.185,-16.6047 4.227,-8.3468 6.644,-11.8156 9.662,-13.8665 3.948,-2.682 6.611,-3.4531 6.611,-1.9136 0,0.8128 -1.748,5.3673 -2.569,6.6931 -0.725,1.1706 -1.266,3.3933 -1.042,4.2836 0.073,0.2915 -0.029,1.0064 -0.227,1.5884 -0.821,2.4209 -1.095,11.3777 -0.373,12.247 0.23,0.277 0.212,0.343 -0.094,0.343 -0.589,0 -4.196,1.9532 -10.46,5.6647 -3.159,1.871 -5.992,3.5342 -6.297,3.6959 l -0.554,0.2941 0.158,-2.425 z M 241.441,39.645 c -0.452,-0.3591 -1.97,-1.8126 -3.372,-3.23 -2.885,-2.9143 -4.117,-3.8384 -5.903,-4.4258 -0.693,-0.2283 -1.205,-0.528 -1.157,-0.6789 0.128,-0.4082 3.143,-2.6245 4.695,-3.4521 1.628,-0.8677 1.356,-1.0839 3.416,2.7132 3.823,7.045 5.243,10.4636 3.808,9.1647 -0.708,-0.6401 -1.343,-0.3791 -0.683,0.2806 0.515,0.5149 0.029,0.2902 -0.804,-0.3717 z m 6.466,-2.7828 c -0.075,-0.2345 -0.447,-0.6569 -0.828,-0.9386 -0.838,-0.6194 -1.777,-1.9885 -4.894,-7.1387 l -2.381,-3.9334 1.115,-0.4795 c 2.044,-0.8793 5.26,-1.7018 5.665,-1.4491 0.6,0.3742 0.887,1.608 1.299,5.5829 0.214,2.0591 0.549,4.7247 0.746,5.9236 0.279,1.7054 0.295,2.2537 0.075,2.5195 -0.379,0.4557 -0.634,0.4279 -0.797,-0.0867 z m 10.136,-0.497 c 0.126,-1.2748 2.563,-13.6981 2.715,-13.8376 0.457,-0.4222 4.047,1.2856 5.243,2.4941 l 1.35,1.3647 -1.165,1.2394 c -1.422,1.5112 -2.88,3.5641 -4.627,6.5128 -1.849,3.1207 -1.977,3.2702 -2.36,2.7539 -0.432,-0.5827 -0.761,-0.5091 -1.047,0.2344 -0.201,0.5207 -0.222,0.3744 -0.109,-0.7617 z m -5.03,-1.0588 c -0.515,-0.3068 -0.772,-1.1723 -1.356,-4.5662 -0.267,-1.5469 -0.702,-3.783 -0.967,-4.9692 -0.831,-3.7215 -0.389,-4.1467 4.173,-4.0044 2.958,0.0922 3.16,0.2936 2.475,2.4673 -1.692,5.3747 -2.015,6.5122 -2.48,8.7328 -0.541,2.588 -0.825,2.9473 -1.845,2.3397 z m -63.958,16.7221 c -0.564,-4.0476 0.648,-13.7584 2.886,-23.1393 l 1.006,-4.2136 3.156,-1.9409 c 6.784,-4.1727 7.285,-4.0416 6.678,1.7479 -0.495,4.7239 -0.373,9.9773 0.363,15.6141 0.53,4.0607 0.482,4.9064 -0.241,4.252 -0.667,-0.6036 -1.518,-0.2388 -7.222,3.0959 -5.834,3.4104 -6.658,4.0477 -5.254,4.064 0.617,0.0071 0.625,0.0219 0.189,0.3515 -0.475,0.3596 -1.519,0.4721 -1.561,0.1684 z M 232.696,24.014 c -1.385,-0.6185 -2.367,-1.827 -1.875,-2.3073 0.527,-0.5135 5.955,-3.5839 7.532,-4.2597 l 1.023,-0.4386 0.357,0.5449 c 0.196,0.2996 0.483,1.1445 0.637,1.8774 0.34,1.6246 0.137,2.0458 -1.114,2.3057 -0.493,0.1025 -1.854,0.649 -3.025,1.2145 -2.527,1.2208 -2.918,1.3384 -3.535,1.0631 z m 24.513,-5.3131 c -1.328,-0.2617 -1.418,-0.3346 -1.598,-1.2941 -0.227,-1.2106 -0.058,-1.1964 1.64,0.1383 1.973,1.5507 1.973,1.5532 -0.042,1.1558 z m -61.763,-2.5262 0.374,-0.5704 -0.816,0.1323 c -1.383,0.2245 -1.027,-0.5519 1.228,-2.6768 2.136,-2.0128 4.18,-2.9901 10.027,-4.79588 3.022,-0.93346 5.568,-1.61486 5.666,-1.51683 0.175,0.17557 -16.17,9.99801 -16.638,9.99801 -0.118,0 -0.047,-0.2567 0.159,-0.5704 z m 135.309,34.0212 c -0.522,-0.7491 -2.032,-3.1022 -3.356,-5.2291 -7.087,-11.3903 -14.037,-19.9229 -18.927,-23.2376 -0.935,-0.6334 -1.699,-1.2506 -1.699,-1.3714 0,-0.5029 6.852,-4.9851 8.099,-5.2982 0.849,-0.2131 1.778,0.447 4.393,3.1206 6.922,7.0779 17.987,21.4565 21.391,27.7956 1.405,2.617 1.395,2.6637 -0.543,2.6417 -1.454,-0.0165 -1.811,0.0898 -4.403,1.3125 -4.033,1.9026 -3.822,1.8913 -4.955,0.2659 z m -87,-31.3205 c -0.835,-0.9951 -1.264,-2.4319 -0.823,-2.7545 0.752,-0.5493 9.815,-2.2546 10.159,-1.9112 0.048,0.048 -0.1,1.0252 -0.329,2.1715 l -0.416,2.0841 -2.812,0.3945 c -3.815,0.5352 -5.34,0.5393 -5.779,0.0156 z m 99.964,24.3359 c -0.565,-0.8057 -2.061,-2.9942 -3.325,-4.8633 -6.763,-10.0052 -13.36,-17.8246 -19.885,-23.5718 -0.848,-0.7471 -1.301,-1.3133 -1.219,-1.5235 0.407,-1.034 5.76,-4.09017 6.736,-3.84522 3.372,0.84632 21.812,23.54212 25.9,31.87672 0.694,1.4157 0.549,2.028 -0.366,1.5386 -0.832,-0.4454 -1.73,-0.276 -4.256,0.8032 -1.353,0.5776 -2.481,1.0501 -2.508,1.0501 -0.027,0 -0.512,-0.6592 -1.077,-1.4648 z m -98.9,-33.70801 c -0.08,-0.12892 -0.033,-0.23438 0.103,-0.23438 0.137,0 0.248,0.10546 0.248,0.23438 0,0.1289 -0.046,0.23437 -0.103,0.23437 -0.057,0 -0.168,-0.10547 -0.248,-0.23437 z M 357.024,16.429 c -1.259,-1.4486 -3.552,-3.9785 -5.097,-5.6221 -3.058,-3.25319 -3.06,-3.32605 -0.086,-2.27607 4.109,1.45013 5.237,2.11247 7.486,4.39567 l 2.083,2.1146 -0.725,1.5492 c -1.323,2.8274 -1.053,2.8393 -3.661,-0.1613 z m -3.845,20.0161 C 348.368,28.6711 341.135,19.5987 333.492,11.7497 328.761,6.89087 328.778,6.9379 331.61,6.61637 l 1.47,-0.16689 1.694,1.59418 c 8.864,8.34074 25.015,28.00164 25.015,30.45104 0,0.6518 -0.616,0.7851 -1.391,0.3011 -0.424,-0.2647 -1.858,-0.0843 -3.074,0.3868 -0.271,0.1048 -0.818,-0.5941 -2.145,-2.7375 z M 234.37,13.9265 c -0.11,-0.1724 -0.443,-0.8408 -0.741,-1.4853 -0.299,-0.6445 -1.397,-2.46556 -2.442,-4.04673 -1.044,-1.58116 -1.856,-2.91434 -1.805,-2.96262 0.139,-0.12935 3.982,0.45471 6.522,0.99121 2.395,0.50572 2.299,0.43686 3.999,2.88183 1.372,1.97241 1.347,3.50151 -0.056,3.48431 -0.668,-0.0082 -0.931,-0.3788 -0.544,-0.766 0.542,-0.5425 0.464,-0.6367 -0.526,-0.6367 -2.148,0 -4.661,1.2286 -4.041,1.9753 0.224,0.27 0.247,0.4629 0.077,0.6332 -0.17,0.1702 -0.305,0.1493 -0.443,-0.0685 z m 57.535,148.6415 c -1.581,-1.085 -9.961,-8.359 -9.961,-8.645 0,-0.692 1.247,-1.487 8.086,-5.152 6.819,-3.654 15.155,-8.279 19.218,-10.66 4.787,-2.806 5.301,-2.978 6.145,-2.059 1.258,1.37 5.45,11.429 5.737,13.768 0.066,0.538 -0.02,0.595 -1.107,0.729 -1.988,0.247 -6.209,2.282 -17.293,8.341 -8.177,4.469 -9.178,4.809 -10.825,3.678 z m 63.238,-36.097 c -0.416,-0.296 -1.259,-0.611 -1.875,-0.701 -2.276,-0.331 -3.147,-1.638 -3.691,-5.543 -0.61,-4.37 -0.88,-3.825 2.981,-6.008 4.864,-2.748 11.163,-6.144 14.122,-7.612 5.348,-2.654 5.142,-2.878 3.321,3.623 -0.642,2.291 -0.923,3.926 -1.208,7.031 -0.551,6.002 -0.313,5.363 -2.481,6.634 l -1.876,1.1 -2.341,-0.037 c -2.546,-0.04 -3.033,-0.138 -3.033,-0.615 0,-1.169 -1.28,-0.235 -2.112,1.541 -0.612,1.307 -0.739,1.348 -1.807,0.587 z M 296.51,70.7222 c -0.718,-0.3872 -3.431,-4.2287 -3.82,-5.4081 -0.268,-0.8139 -0.239,-1.3125 0.234,-4.0009 1.217,-6.9194 1.24,-7.2025 1.134,-13.8523 -0.132,-8.337 -0.676,-10.5117 -3.904,-15.6168 l -0.938,-1.4838 0.637,-0.6693 c 1.193,-1.2554 6.99,-4.7657 12.375,-7.4937 l 1.192,-0.604 1.972,1.7069 c 5.352,4.6331 14.622,16.7387 20.027,26.1529 2.776,4.8367 3.712,7.1053 2.746,6.6567 -1.689,-0.7837 -5.603,1.0551 -21.287,9.999 -8.455,4.8215 -9.293,5.1943 -10.368,4.6134 z M 60.3402,427.51 c 0.3589,-0.934 2.463,-9.186 4.6759,-18.338 2.2129,-9.153 4.2652,-16.641 4.5608,-16.641 0.2956,0 2.7832,7.755 5.528,17.233 2.7448,9.477 5.3071,17.744 5.6939,18.37 0.4999,0.809 5.2248,1.18 16.3373,1.283 l 15.6339,0.145 0.543,-2.343 c 0.298,-1.289 5.553,-22.28 11.677,-46.645 6.124,-24.366 11.135,-44.906 11.135,-45.645 0,-1.12 -2.604,-1.314 -15.631,-1.168 l -15.632,0.176 -2.222,10.313 c -1.223,5.672 -3.1857,14.531 -4.3628,19.687 l -2.1402,9.375 -1.5059,-4.881 c -5.1319,-16.634 -10.4967,-32.773 -11.2034,-33.703 -0.5508,-0.724 -5.4633,-1.125 -14.8172,-1.21 l -13.9932,-0.125 -0.6522,2.616 c -3.3463,13.423 -10.5426,37.009 -10.9526,35.897 -0.2852,-0.773 -3.182,-9.633 -6.4374,-19.687 l -5.9188,-18.282 -14.9285,-0.259 c -8.21071,-0.142 -15.25674,0.07 -15.6578855,0.471 -0.4011515,0.401 0.7472685,5.58 2.5520455,11.509 9.49244,31.183 15.74004,51.767 20.06054,66.092 2.6437,8.766 4.938,16.359 5.0984,16.875 0.1823,0.586 6.2228,0.871 16.0993,0.76 14.2957,-0.161 15.8699,-0.34 16.46,-1.875 z M 277.594,211.652 c 1.752,0.646 9.263,0.135 19.232,-1.311 6.315,-0.915 7.551,-1.654 13.982,-8.363 15.095,-15.749 17.357,-18.744 20.23,-26.787 1.956,-5.476 2.029,-5.54 8.214,-7.242 9.518,-2.618 10.079,-3.104 11.69,-10.139 1.153,-5.035 1.511,-5.386 7.98,-7.82 6.654,-2.503 7.236,-3.145 15.621,-17.221 7.873,-13.217 9.17,-15.796 11.432,-22.735 2.821,-8.651 5.786,-17.4445 7.714,-22.8788 3.705,-10.4387 5.024,-15.254 5.548,-20.2458 0.599,-5.6985 0.222,-6.6296 -4.596,-11.3672 -4.611,-4.5341 -4.527,-4.1696 -2.314,-10.0656 0.718,-1.9126 1.459,-4.0648 1.646,-4.7825 1.527,-5.8659 -1.777,-9.1396 -18.984,-18.8084 -4.72,-2.6521 -5.65,-3.5487 -7.829,-7.5452 -1.986,-3.6431 -3.468,-5.58365 -5.233,-6.85441 -8.939,-6.43486 -29.597,-8.450827 -42.732,-4.17016 -10.018,3.26492 -18.847,9.03647 -33.852,22.12817 -1.982,1.7297 -4.073,3.54 -4.646,4.0228 l -1.042,0.8779 -3.316,-3.1061 C 257.172,9.28237 249.682,4.31011 237.63,1.54025 209.426,-4.94168 178.952,9.27378 166.329,34.8003 c -9.36,18.928 -8.312,47.7532 2.573,70.7987 4.018,8.506 16.39,28.825 22.117,36.323 3.284,4.299 30.927,31.192 38.762,37.71 13.297,11.062 40.635,29.37 47.813,32.02 z M 79.875,310.999 c 5.2815,-2.029 10.8324,-6.445 12.5015,-9.946 2.5131,-5.27 2.9411,-12.453 1.1177,-18.759 -2.3626,-8.172 -6.8152,-14.81 -16.4624,-24.544 -7.1909,-7.256 -8.42,-8.917 -7.4562,-10.078 0.9728,-1.172 5.5495,-1.391 29.1522,-1.391 l 27.9982,0 0.246,33.047 0.247,33.047 15.703,0.104 15.703,0.104 0,-33.151 0,-33.151 15,0 15,0 0,-15.038 0,-15.038 -72.422,0.273 c -67.4295,0.253 -72.6803,0.389 -76.1717,1.962 -5.4125,2.44 -8.6395,5.926 -10.7786,11.643 -4.8968,13.088 0.146,25.913 16.5535,42.101 7.5717,7.47 7.9878,8.08 6.5154,9.554 -1.3084,1.31 -3.8929,1.611 -15.3691,1.789 l -13.7962,0.215 -0.2586,14.626 -0.2586,14.627 26.9773,-0.368 c 19.5823,-0.266 27.8768,-0.713 30.2586,-1.628 z m 139.322,-7.062 2.917,-8.437 12.083,-0.27 c 6.647,-0.149 12.942,-0.059 13.99,0.201 1.298,0.321 2.25,1.756 2.982,4.494 0.592,2.213 1.915,5.979 2.939,8.369 l 1.863,4.346 34.764,0.146 34.765,0.146 0,-15.681 0,-15.68 4.355,4.621 c 2.395,2.541 9.193,9.603 15.108,15.694 l 10.753,11.073 18.408,-0.292 18.407,-0.292 0.259,-14.297 0.259,-14.297 -11.978,-0.104 c -6.587,-0.057 -12.879,-0.033 -13.98,0.054 -1.34,0.105 -3.125,-1.212 -5.391,-3.978 -3.901,-4.761 -4.07,-5.347 -1.539,-5.347 3.183,0 11.814,-4.331 15.792,-7.925 5.726,-5.173 8.096,-10.799 7.977,-18.935 -0.054,-3.687 -0.626,-8.328 -1.271,-10.313 -2.69,-8.273 -10.026,-15.162 -19.514,-18.322 -5.875,-1.957 -8.165,-2.098 -39.277,-2.418 l -33.037,-0.34 -0.244,45.095 -0.243,45.096 -15,-44.797 -15,-44.797 -23.848,0 -23.847,0 -15.615,47.344 c -8.587,26.039 -15.431,47.682 -15.207,48.096 0.224,0.413 8.067,0.624 17.43,0.468 l 17.024,-0.283 2.916,-8.438 z m -101.822,-198.196 0,-84.2893 -20.625,0 -20.625,0 0,84.2893 0,84.29 20.625,0 20.625,0 0,-84.29 z m 76.012,318.025 2.186,6.153 32.589,-0.024 c 17.924,-0.012 33.486,-0.092 34.582,-0.175 l 1.992,-0.153 -0.09,-15.176 c -0.049,-8.346 -0.041,-15.176 0.018,-15.176 0.06,0 2.362,2.347 5.118,5.215 19.982,20.799 23.658,24.51 24.656,24.888 0.912,0.346 4.777,0.374 43.306,0.313 l 42.304,-0.067 2.344,-0.662 c 11.334,-3.203 17.202,-10.05 17.629,-20.57 0.408,-10.061 -4.146,-18.96 -16.471,-32.181 -8.228,-8.827 -9.832,-10.894 -9.056,-11.67 0.151,-0.151 3.346,-0.368 8.174,-0.556 21.795,-0.847 22.529,-0.893 24.069,-1.49 l 0.672,-0.261 -0.169,-14.233 c -0.093,-7.828 -0.237,-14.303 -0.321,-14.388 -0.54,-0.552 -53.959,0.477 -57.457,1.106 -9.908,1.781 -16.248,10.473 -16.231,22.252 0.014,10.1 4.486,18.353 16.87,31.135 8.925,9.213 9.731,11.212 4.868,12.083 -2.402,0.43 -15.92,0.722 -33.549,0.725 l -16.91,0.002 -2.445,-2.637 c -3.166,-3.414 -4.399,-5.009 -4.399,-5.688 0,-0.621 0.205,-0.707 2.226,-0.938 7.757,-0.884 18.526,-9.301 21.54,-16.835 1.829,-4.571 1.989,-14.847 0.318,-20.308 -2.199,-7.186 -10.852,-15.372 -19.188,-18.153 -6.699,-2.234 -4.858,-2.148 -60.502,-2.834 l -12.129,-0.149 -0.034,27.853 c -0.018,15.319 -0.097,35.149 -0.175,44.065 l -0.142,16.212 -14.649,-43.634 -14.648,-43.634 -23.83,-0.059 -23.83,-0.06 -8.557,25.724 c -11.566,34.768 -21.778,66.068 -22.078,67.668 -0.32,1.703 -0.97,1.641 17.734,1.717 l 16.571,0.067 1.58,-4.755 c 2.927,-8.807 3.931,-10.97 5.364,-11.553 1.869,-0.761 21.822,-0.571 24.155,0.231 2.366,0.812 2.762,1.513 5.995,10.61 z"
       inkscape:connector-curvature="0"
       style="fill:#000000;stroke:none" />
  </g>
</svg>
